# Blender 3.4.1
# www.blender.org
mtllib weird.mtl
o Cube
v -11.216043 7.097590 11.216043
v -11.216043 7.097590 -11.216043
v 11.216043 7.097590 11.216043
v 11.216043 7.097590 -11.216043
v 11.216043 11.216043 -11.999993
v 11.216043 11.999993 -11.216043
v 11.999993 11.216043 -11.216043
v 11.216043 -11.999993 -11.216043
v 11.216043 -11.216043 -11.999993
v 11.999993 -11.216043 -11.216043
v 11.999993 11.216043 11.216043
v 11.216043 11.999993 11.216043
v 11.216043 11.216043 11.999993
v 11.999993 -11.216043 11.216043
v 11.216043 -11.216043 11.999993
v 11.216043 -11.999993 11.216043
v -11.216043 11.216043 -11.999993
v -11.999993 11.216043 -11.216043
v -11.216043 11.999993 -11.216043
v -11.999993 -11.216043 -11.216043
v -11.216043 -11.216043 -11.999993
v -11.216043 -11.999993 -11.216043
v -11.999993 11.216043 11.216043
v -11.216043 11.216043 11.999993
v -11.216043 11.999993 11.216043
v -11.216043 -11.999993 11.216043
v -11.216043 -11.216043 11.999993
v -11.999993 -11.216043 11.216043
vn -0.0000 -1.0000 -0.0000
vn -1.0000 -0.0000 -0.0000
vn -0.0000 1.0000 -0.0000
vn -0.0000 -0.0000 1.0000
vn 1.0000 -0.0000 -0.0000
vn 0.5774 0.5774 -0.5774
vn 0.5774 -0.5774 -0.5774
vn 0.5774 0.5774 0.5774
vn 0.5774 -0.5774 0.5774
vn -0.5774 0.5774 -0.5774
vn -0.5774 -0.5774 -0.5774
vn -0.5774 0.5774 0.5774
vn -0.5774 -0.5774 0.5774
vn -0.7071 -0.7071 -0.0000
vn -0.0000 -0.7071 -0.7071
vn 0.7071 -0.0000 -0.7071
vn -0.7071 -0.0000 0.7071
vn 0.7071 -0.0000 0.7071
vn -0.7071 -0.0000 -0.7071
vn -0.0000 0.7071 0.7071
vn 0.7071 0.7071 -0.0000
vn -0.0000 -0.7071 0.7071
vn -0.7071 0.7071 -0.0000
vn -0.0000 0.7071 -0.7071
vn 0.7071 -0.7071 -0.0000
vn -0.0000 -0.0000 -1.0000
vt 0.016183 1.914696
vt 2.919355 0.965916
vt -0.969825 0.956031
vt 0.940048 1.917043
vt 1.930917 0.963404
vt 1.995490 0.963568
vt 0.018531 0.990830
vt -0.045961 0.958379
vt 1.007052 0.961055
vt 0.942396 0.993178
vt 1.007134 0.928769
vt 1.007052 0.961055
vt 0.942396 0.993178
vt 0.974847 0.928687
vt 0.942560 0.928604
vt 0.945072 -0.059834
vt 0.977359 -0.059752
vt 1.009482 0.004904
vt 0.944990 -0.027547
vt 0.944908 0.004740
vt -0.013592 0.926174
vt 0.018695 0.926256
vt 0.018531 0.990830
vt -0.045961 0.958379
vt -0.045879 0.926092
vt 0.021125 -0.029895
vt 0.021043 0.002392
vt -0.043531 0.002228
vt -0.011079 -0.062265
vt 0.021208 -0.062182
vt 1.963285 0.931199
vt 1.930998 0.931117
vt 1.995572 0.931281
vt 1.930917 0.963404
vt 1.995490 0.963568
vt 0.947502 -1.015986
vt 1.997920 0.007416
vt 0.979707 -0.983617
vt 1.933347 0.007252
vt 0.947420 -0.983699
vt 2.919437 0.933629
vt 2.951724 0.933711
vt -0.969743 0.923744
vt -0.969825 0.956031
vt 2.919355 0.965916
vt 0.023555 -0.986047
vt 2.954072 0.009846
vt -0.967395 -0.000121
vt -0.008731 -0.986129
vt 0.023638 -1.018334
vt 2.921785 0.009764
s 0
usemtl Material
f 8/16/1 26/46/1 22/40/1
f 23/41/2 20/37/2 28/51/2
f 2/4/3 3/7/3 4/10/3
f 13/25/4 27/48/4 15/28/4
f 19/34/4 4/9/4 6/12/4
f 7/15/5 14/27/5 10/20/5
f 5/11/6 6/12/6 7/14/6
f 8/16/7 9/17/7 10/19/7
f 11/21/8 12/24/8 13/25/8
f 14/26/9 15/29/9 16/30/9
f 17/31/10 18/33/10 19/35/10
f 20/36/11 21/38/11 22/40/11
f 23/41/12 24/42/12 25/45/12
f 26/46/13 27/49/13 28/50/13
f 26/46/14 20/36/14 22/40/14
f 22/40/15 9/17/15 8/16/15
f 10/20/16 5/11/16 7/15/16
f 24/42/17 28/51/17 27/47/17
f 15/28/18 11/22/18 13/25/18
f 21/39/19 18/33/19 17/32/19
f 25/44/20 13/25/20 12/24/20
f 12/23/21 7/15/21 6/13/21
f 16/30/22 27/49/22 26/46/22
f 19/35/23 23/41/23 25/45/23
f 6/12/24 17/32/24 19/34/24
f 8/16/25 14/27/25 16/30/25
f 17/32/26 9/18/26 21/39/26
f 25/45/5 2/6/5 19/35/5
f 6/13/2 3/7/2 12/23/2
f 12/24/26 1/3/26 25/44/26
f 8/16/1 16/30/1 26/46/1
f 23/41/2 18/33/2 20/37/2
f 2/4/3 1/1/3 3/7/3
f 13/25/4 24/43/4 27/48/4
f 19/34/4 2/5/4 4/9/4
f 7/15/5 11/22/5 14/27/5
f 26/46/14 28/50/14 20/36/14
f 22/40/15 21/38/15 9/17/15
f 10/20/16 9/18/16 5/11/16
f 24/42/17 23/41/17 28/51/17
f 15/28/18 14/27/18 11/22/18
f 21/39/19 20/37/19 18/33/19
f 25/44/20 24/43/20 13/25/20
f 12/23/21 11/22/21 7/15/21
f 16/30/22 15/29/22 27/49/22
f 19/35/23 18/33/23 23/41/23
f 6/12/24 5/11/24 17/32/24
f 8/16/25 10/20/25 14/27/25
f 17/32/26 5/11/26 9/18/26
f 25/45/5 1/2/5 2/6/5
f 6/13/2 4/10/2 3/7/2
f 12/24/26 3/8/26 1/3/26
